<svg xmlns="http://www.w3.org/2000/svg" viewBox="0 0 10 10"><g><path d="M0.880919 10C0.921898 9.93942 0.960535 9.88422 0.998001 9.82633C1.08822 9.67141 1.15548 9.50036 1.19704 9.32014C1.27243 9.00312 1.3083 8.67541 1.30359 8.3468C1.30359 7.74906 1.30359 7.15267 1.30359 6.55493V6.50377H1.2509H0.800132C0.666126 6.50625 0.534064 6.46671 0.418133 6.38938C0.302202 6.31206 0.206784 6.19988 0.14213 6.06489C0.0444971 5.88064 -0.00508013 5.66804 -0.000710747 5.45234C-0.000710747 5.37964 -0.000710747 5.30695 -0.000710747 5.22213C0.0215349 5.24367 0.0390972 5.25848 0.0543179 5.27598C0.149389 5.38755 0.272026 5.46275 0.405565 5.49138C0.435275 5.49792 0.465471 5.50107 0.495718 5.50081H1.26846H1.30593C1.30593 5.48331 1.30593 5.46715 1.30593 5.451C1.30593 5.15347 1.30593 4.85595 1.30593 4.55708C1.30593 4.51265 1.29422 4.50188 1.25675 4.50323H0.788424C0.670847 4.5051 0.554693 4.47351 0.450307 4.41126C0.345921 4.34902 0.256543 4.25805 0.190133 4.14647C0.0642063 3.95213 -0.00283241 3.71568 -0.000710747 3.47334V3.2189L0.0906134 3.31045C0.19356 3.4282 0.331824 3.49612 0.476985 3.50027C0.742762 3.50027 1.00854 3.50027 1.27549 3.50027H1.30007C1.30007 3.48546 1.30007 3.47065 1.30007 3.45584C1.30007 2.81502 1.30007 2.17286 1.30007 1.53069C1.29949 1.12664 1.22406 0.727364 1.07879 0.359451C1.0331 0.237657 0.969759 0.125671 0.891456 0.0282714C0.886349 0.0193686 0.882034 0.00989702 0.878577 0L0.905506 0C2.00725 0 3.11017 0 4.21425 0C4.56177 0.00356937 4.9084 0.0409492 5.25043 0.111739C5.63695 0.185984 6.01458 0.312045 6.37559 0.487345C6.70445 0.647893 7.01222 0.860406 7.29 1.11874C7.5671 1.37526 7.80802 1.67952 8.00421 2.02073C8.13715 2.25017 8.2501 2.49413 8.3414 2.74906C8.42663 2.97956 8.49516 3.21776 8.5463 3.46123C8.55332 3.50027 8.5744 3.50027 8.60016 3.50027C8.80388 3.50027 9.0076 3.50027 9.2125 3.50027C9.34328 3.49842 9.4721 3.5369 9.58556 3.61172C9.69902 3.68654 9.79296 3.79496 9.85762 3.92569C9.95808 4.11019 10.009 4.32467 10.004 4.54227V4.77921C9.95129 4.72806 9.90679 4.68094 9.85762 4.64459C9.76701 4.56019 9.65457 4.51283 9.53798 4.50996C9.26167 4.50996 8.98536 4.50996 8.70904 4.50996H8.69499V5.50485H8.73831H9.22889C9.34153 5.50415 9.45266 5.53461 9.55291 5.59365C9.65317 5.6527 9.7396 5.73859 9.80493 5.8441C9.93945 6.04256 10.0098 6.2886 10.004 6.54012V6.78514C9.97002 6.75013 9.94192 6.72456 9.91733 6.69628C9.79917 6.56835 9.64167 6.49959 9.47944 6.50512C9.18791 6.50512 8.89403 6.50512 8.60718 6.50512C8.57206 6.50512 8.55684 6.51589 8.54864 6.55627C8.47952 6.89977 8.37661 7.2331 8.24188 7.54981C8.10953 7.86216 7.94268 8.15356 7.74546 8.4168C7.5824 8.63011 7.40075 8.82363 7.20336 8.99434C6.88216 9.26736 6.5269 9.48295 6.14962 9.63382C5.8537 9.75509 5.54882 9.84521 5.23872 9.90307C4.8474 9.97614 4.45147 10.0117 4.05502 10.0094H0.880919M7.06989 3.50027C7.06989 3.48546 7.06989 3.47738 7.06989 3.46931C7.02657 3.25794 6.98793 3.04523 6.93759 2.83522C6.85732 2.50193 6.73419 2.18429 6.57229 1.89284C6.4029 1.58044 6.18027 1.31071 5.9178 1.09989C5.6749 0.906866 5.40531 0.762568 5.12047 0.673129C4.77716 0.564445 4.42281 0.50876 4.06673 0.507539C3.5984 0.507539 3.13007 0.507539 2.66174 0.507539C2.61959 0.507539 2.60788 0.521002 2.60788 0.568121C2.60788 1.53114 2.60788 2.49282 2.60788 3.45315C2.60788 3.49758 2.61959 3.50835 2.65706 3.50835H7.0172H7.06989M7.06989 6.51319H6.9692C5.53377 6.51319 4.09756 6.51319 2.66057 6.51319C2.62193 6.51319 2.60437 6.51992 2.60554 6.57108C2.60554 7.52962 2.60554 8.4877 2.60554 9.44534C2.60554 9.51265 2.60554 9.51265 2.66174 9.51265C3.08324 9.51265 3.50356 9.51265 3.92506 9.51265C4.23163 9.51068 4.53724 9.47279 4.83713 9.39957C5.10066 9.3371 5.35606 9.23574 5.59699 9.09801C5.77558 8.99574 5.94235 8.8682 6.09342 8.71836C6.25672 8.55692 6.40115 8.37184 6.52312 8.16774C6.67104 7.92304 6.78921 7.65626 6.87436 7.3748C6.92354 7.21325 6.96569 7.049 7.00432 6.88341C7.03125 6.76494 7.04999 6.64378 7.0734 6.51454M4.88045 5.50081H7.10501C7.1659 5.50081 7.16824 5.50081 7.16824 5.42946C7.16824 5.13866 7.16824 4.84787 7.16824 4.55573C7.16824 4.50862 7.15185 4.49919 7.11438 4.49919C6.88022 4.49919 6.64605 4.49919 6.41189 4.49919H2.66759C2.60788 4.49919 2.60671 4.49919 2.60788 4.57054C2.60788 4.86268 2.60788 5.15617 2.60788 5.4483C2.60788 5.49273 2.62076 5.50081 2.65472 5.50081H4.87928" fill="#222222"/></g></svg>